<svg width="96" height="96" fill="none" xmlns="http://www.w3.org/2000/svg"><g clip-path="url(#clip0)"><path d="M95.165 9.894l-1.37-1.372a2.832 2.832 0 00-2.893-.693l-2.561.832a2.858 2.858 0 00-1.498 1.142L84.04 14.06a3.59 3.59 0 00-4.148.665L62.641 31.976a4.227 4.227 0 00-5.239.582l-1.117 1.118a4.183 4.183 0 00-2.648-.934c-1.127 0-2.187.439-2.983 1.235l-3.2 3.2a1.406 1.406 0 101.989 1.988l3.2-3.199c.264-.266.618-.412.994-.412.375 0 .729.146.994.412l13.09 13.09c.266.266.412.62.412.995 0 .376-.146.729-.412.994L44.866 73.901a1.407 1.407 0 001.989 1.989L69.71 53.034a4.19 4.19 0 001.236-2.983c0-.976-.33-1.9-.934-2.649l1.117-1.117a4.226 4.226 0 00.582-5.239l17.251-17.25a3.56 3.56 0 001.05-2.534c0-.57-.133-1.12-.382-1.615l4.255-2.802a2.856 2.856 0 001.142-1.498l.832-2.56a2.834 2.834 0 00-.694-2.893zM81.941 26.84l-5.093-5.093 1.698-1.698 5.092 5.093-1.697 1.698zm-17.239 7.053L74.86 23.736l5.093 5.092-10.156 10.157-5.094-5.092zm-3.323.655l7.761 7.76c.549.548.549 1.44 0 1.989l-1.1 1.1-9.75-9.75 1.1-1.1a1.407 1.407 0 011.99 0zm31.806-22.63l-.833 2.56a.037.037 0 01-.013.018l-5.545 3.651a1.403 1.403 0 00-.22 2.168l.4.402c.146.145.225.339.225.545 0 .206-.08.4-.225.544l-1.346 1.347-5.094-5.092 1.347-1.347c.3-.3.79-.3 1.09 0l.4.4a1.408 1.408 0 002.17-.22l3.65-5.545a.034.034 0 01.019-.013l2.561-.833a.033.033 0 01.034.009l1.371 1.37c.01.01.012.023.009.035zM40.9 77.867l-1.565 1.564a4.19 4.19 0 01-2.983 1.236 4.19 4.19 0 01-2.982-1.236l-7.627-7.627-.002-.002a.013.013 0 01-.003-.002l-1.482-1.482a4.224 4.224 0 010-5.966l20.877-20.877a1.406 1.406 0 10-1.99-1.989L22.269 62.363c-2.742 2.741-2.742 7.201 0 9.944l.49.489-2.263 2.262a4.19 4.19 0 00-1.235 2.984 4.19 4.19 0 001.235 2.983l.09.09-1.869 1.868A9.155 9.155 0 0112.2 85.68a9.155 9.155 0 01-6.515-2.698c-3.593-3.594-3.593-9.44 0-13.032l20.774-20.773a8.18 8.18 0 002.412-5.823 8.18 8.18 0 00-2.412-5.823 8.182 8.182 0 00-5.823-2.412c-2.2 0-4.267.857-5.823 2.412L.411 51.934a1.408 1.408 0 000 1.989c.55.548 1.44.548 1.99 0L16.802 39.52a5.384 5.384 0 013.834-1.588c1.449 0 2.81.564 3.834 1.588a5.386 5.386 0 011.588 3.834c0 1.449-.564 2.81-1.588 3.834L3.696 67.963c-4.69 4.689-4.69 12.319 0 17.008a11.946 11.946 0 008.505 3.523c3.212 0 6.232-1.251 8.504-3.523l1.868-1.868.09.089a4.206 4.206 0 002.983 1.233c1.08 0 2.16-.41 2.983-1.233l2.261-2.262.49.49a6.986 6.986 0 004.972 2.06 6.987 6.987 0 004.973-2.06l1.563-1.565a1.406 1.406 0 10-1.988-1.989zm-14.26 3.336a1.408 1.408 0 01-1.989 0l-2.167-2.167a1.4 1.4 0 01-.412-.994c0-.376.147-.73.412-.994l2.262-2.263 4.156 4.156-2.262 2.262z" fill="#fff"/><path stroke="#fff" stroke-width="3" d="M-3.939-4.061l107 107"/></g><defs><clipPath id="clip0"><path fill="#fff" d="M0 0h96v96H0z"/></clipPath></defs></svg>