<svg width="298" height="157" fill="none" xmlns="http://www.w3.org/2000/svg"><g clip-path="url(#clip0)"><path d="M121.1 28.5c-17.4-.1-26.9 8-28.2 24.5-.2 1.5-.2 3-.2 4.7 0 3.5.5 6.9 1.7 9.9 1 3.1 2.7 5.9 4.9 8.4.1.1.2.3.4.4 4.7 4.9 17 9.9 37.1 14.9 6 1.5 9.1 4.2 9.1 8.1-.4 4.5-5.2 7-14.6 7.4h-53v21.3h53.4c8.9 0 16.3-1.5 22-4.6V78.4c0-2 .1-3.9.3-5.8-4.4-2.2-10.1-4.2-17-5.9-15.7-4-23.7-8.1-23.7-12.4-.2-2.9 3.4-4.4 11-4.4h38.2c1.7-2.4 3.6-4.6 5.8-6.8 9.7-9.7 21.4-14.6 35.2-14.6h-82.4zM247.6 54.8c-6.6 0-12.1 2.2-16.7 6.9-.9.9-1.7 1.9-2.4 2.8 2.3 4.1 3.5 8.7 3.5 13.8 0 5.1-1.2 9.6-3.5 13.8-.8 1.5-1.8 2.9-3 4.2-.6.7-1.2 1.4-1.9 2.1-4.9 4.9-10.6 7.6-17.2 8.3-.9.1-1.8.1-2.7.1h-19.1v21.3h19.1c5.7 0 11-.9 15.9-2.6 2-.6 4-1.5 5.9-2.4 4.8-2.3 9.2-5.5 13.3-9.6 2.2-2.2 4.1-4.5 5.8-6.9 1.1-1.6 2.2-3.2 3-4.9 3.8-7 5.8-14.8 5.8-23.5s-1.9-16.3-5.8-23.4z" fill="#77C1FF"/><path d="M99.2 76c-2.2-2.5-3.9-5.3-4.9-8.4-1.2-3-1.7-6.4-1.7-9.9 0-1.6.1-3.2.2-4.7-2-3.5-4.6-6.9-7.8-9.9-9.7-9.7-21.5-14.6-35.3-14.6-13.8 0-25.5 4.9-35.2 14.6C4.9 52.8 0 64.5 0 78.4c0 13.8 4.9 25.5 14.5 35.2 9.8 9.7 21.4 14.6 35.2 14.6H68v-21.3H49.7c-7.8 0-14.5-2.8-20-8.4-5.6-5.6-8.4-12.3-8.4-20.1 0-7.9 2.8-14.6 8.4-20.2 5.5-5.6 12.3-8.3 20-8.3 8 0 14.6 2.7 20.2 8.3 3.4 3.4 5.7 7.1 7 11.3.8 2.6 1.2 5.2 1.3 8v29.3h21.4V78.4c0-.6 0-1.3-.1-1.9 0-.2-.2-.4-.3-.5zM200.6 50c2.2-3.7 4.9-7.2 8.2-10.4 3.4-3.4 7-6.2 10.9-8.5-4.8-1.6-10-2.5-15.5-2.5h-.7c-13.8 0-25.5 4.9-35.2 14.6-2.2 2.2-4.1 4.4-5.8 6.8-4.8 6.7-7.6 14.3-8.5 22.7-.2 1.9-.3 3.8-.3 5.8v78.3H175V77.5c.2-7.5 3-14 8.4-19.4 4.9-4.8 10.6-7.5 17.2-8.1zM276 0v79.1c-.2 7.5-3 14-8.4 19.4-4.9 4.9-10.6 7.6-17.1 8.3h-.1c-2.2 3.7-4.9 7.2-8.2 10.3-3.4 3.4-7 6.2-10.9 8.5 5 1.7 10.4 2.6 16.2 2.6 13.8 0 25.5-4.9 35.2-14.6 9.8-9.7 14.6-21.4 14.6-35.2V0H276z" fill="#fff"/><path d="M244.7 50c.9-.1 1.8-.1 2.7-.1h19.7V28.5h-19.7c-5.7 0-11 .9-16 2.6-.7.2-1.4.5-2 .8-1.3.5-2.6 1-3.8 1.7-4.8 2.3-9.2 5.5-13.3 9.6-2.2 2.2-4.1 4.5-5.8 6.9h-.1c-1.1 1.6-2.1 3.1-3 4.8-3.8 7-5.8 14.9-5.8 23.5s1.9 16.4 5.8 23.5h.1c6.6 0 12-2.2 16.7-6.9.9-.9 1.7-1.9 2.4-2.8-2.3-4.1-3.5-8.7-3.5-13.8 0-5.1 1.2-9.7 3.5-13.8.8-1.5 1.8-2.9 3-4.2.6-.7 1.2-1.4 1.9-2.1 4.8-5 10.5-7.7 17.2-8.3zM194.8 156.4c-.6.2-1.2.3-1.9.3-1.8 0-3.4-.6-4.7-1.9-1.3-1.3-1.9-2.8-1.9-4.7 0-1.8.6-3.4 1.9-4.7 1.3-1.3 2.8-1.9 4.7-1.9 1.9 0 3.4.6 4.7 1.9 1.3 1.3 1.9 2.8 1.9 4.7v6.6h-2.8V150c0-1-.4-1.8-1.1-2.6-.7-.7-1.6-1.1-2.7-1.1-1 0-1.9.4-2.7 1.1-.7.7-1.1 1.6-1.1 2.7 0 1 .4 1.9 1.1 2.7.7.7 1.6 1.1 2.7 1.1.7 0 1.3-.2 1.9-.5v3zM212.699 154.7c-1.3 1.3-2.8 1.9-4.7 1.9-1.8 0-3.4-.6-4.7-1.9-1.3-1.3-1.9-2.8-1.9-4.7 0-1.8.6-3.4 1.9-4.7 1.3-1.3 2.8-1.9 4.7-1.9 1.8 0 3.4.6 4.7 1.9l-2 2c-.7-.7-1.6-1.1-2.7-1.1-1 0-1.9.4-2.7 1.1-.7.7-1.1 1.6-1.1 2.7 0 1 .4 1.9 1.1 2.7.7.7 1.6 1.1 2.7 1.1 1 0 1.9-.4 2.7-1.1l2 2zM221.3 156.7c-1.8 0-3.4-.6-4.7-1.9-1.3-1.3-1.9-2.8-1.9-4.7 0-1.8.6-3.4 1.9-4.7 1.3-1.3 2.8-1.9 4.7-1.9 1.9 0 3.4.6 4.7 1.9 1.3 1.3 1.9 2.8 1.9 4.7 0 1.8-.6 3.4-1.9 4.7-1.3 1.2-2.9 1.9-4.7 1.9zm2.6-4c.7-.7 1.1-1.6 1.1-2.7 0-1-.4-1.9-1.1-2.7-.7-.7-1.6-1.1-2.7-1.1-1 0-1.9.4-2.7 1.1-.7.7-1.1 1.6-1.1 2.7 0 1 .4 1.9 1.1 2.7.7.7 1.6 1.1 2.7 1.1s2-.3 2.7-1.1zM236.4 156.7c-1.8 0-3.4-.6-4.7-1.9-1.3-1.3-1.9-2.8-1.9-4.7v-6.6h2.8v6.6c0 1 .4 1.9 1.1 2.7.7.7 1.6 1.1 2.7 1.1v2.8zm1.9 0v-13.2h2.8v13.2h-2.8zM246.699 143.4h1.9v2.8h-1.5c-1 0-1.5.2-1.5.6 0 .6 1 1.1 3.1 1.6 1.5.4 2.6.9 3.2 1.4.6.5.9 1.4.9 2.5 0 1.4-.4 2.5-1.2 3.2-.8.7-2 1.1-3.6 1.1h-5v-2.8h5.1c1.2 0 1.9-.4 1.9-1 0-.5-.4-.9-1.2-1.1-2.7-.7-4.4-1.4-5-2-.6-.7-.9-1.5-.9-2.4.1-2.6 1.3-3.9 3.8-3.9zM257.1 146.3v3.8c0 1 .4 1.9 1.1 2.7.7.7 1.6 1.1 2.7 1.1v2.8c-1.8 0-3.4-.6-4.7-1.9-1.3-1.3-1.9-2.8-1.9-4.7v-10.4h2.8v3.8h3.8v2.8h-3.8zM266 140.6c0 .5-.2 1-.6 1.3-.4.4-.8.6-1.3.6s-1-.2-1.3-.6c-.4-.4-.6-.8-.6-1.3s.2-1 .6-1.3c.4-.4.8-.6 1.3-.6s1 .2 1.3.6c.4.3.6.8.6 1.3zm-.4 2.8v13.2h-2.8v-13.2h2.8zM278.8 154.7c-1.3 1.3-2.8 1.9-4.7 1.9-1.8 0-3.4-.6-4.7-1.9-1.3-1.3-1.9-2.8-1.9-4.7 0-1.8.6-3.4 1.9-4.7 1.3-1.3 2.8-1.9 4.7-1.9 1.8 0 3.4.6 4.7 1.9l-2 2c-.7-.7-1.6-1.1-2.7-1.1-1 0-1.9.4-2.7 1.1-.7.7-1.1 1.6-1.1 2.7 0 1 .4 1.9 1.1 2.7.7.7 1.6 1.1 2.7 1.1 1 0 1.9-.4 2.7-1.1l2 2z" fill="#fff"/></g><defs><clipPath id="clip0"><path fill="#fff" d="M0 0h297.4v156.7H0z"/></clipPath></defs></svg>