<svg width="221" height="117" fill="none" xmlns="http://www.w3.org/2000/svg"><g clip-path="url(#clip0)" fill-rule="evenodd" clip-rule="evenodd" fill="#000"><path d="M182.916 75.133l.011-.02c2.808-5.035 4.173-10.665 4.173-16.913 0-6.034-1.273-11.494-3.894-16.492-4.357.124-7.913 1.625-11.072 4.772l-1.332 1.554c1.571 3.082 2.398 6.448 2.398 10.166 0 3.962-.939 7.53-2.726 10.686-.616 1.13-1.352 2.291-2.312 3.362-.431.535-.956 1.06-1.434 1.538l-.021.021c-3.754 3.754-8.27 5.969-13.426 6.39l-.04.003h-.041c-.306 0-.594.022-.923.047l-.014.001c-.317.024-.674.052-1.063.052H138v13.8h13.2c4.09 0 7.983-.682 11.484-1.849 1.446-.482 2.806-1.063 4.286-1.754 3.387-1.646 6.595-3.976 9.523-6.904l.011-.01.011-.011c1.636-1.54 2.992-3.183 4.263-4.942.804-1.206 1.563-2.348 2.128-3.477l.01-.02zM167.4 91.4c-1.5.7-2.9 1.3-4.4 1.8-3.6 1.2-7.6 1.9-11.8 1.9H137V79.3h14.2c.35 0 .675-.025 1-.05.325-.025.65-.05 1-.05 4.9-.4 9.2-2.5 12.8-6.1.5-.5 1-1 1.4-1.5.9-1 1.6-2.1 2.2-3.2 1.7-3 2.6-6.4 2.6-10.2 0-3.8-.9-7.2-2.6-10.3l1.8-2.1c3.5-3.5 7.5-5.1 12.4-5.1 2.9 5.3 4.3 11.1 4.3 17.5s-1.4 12.2-4.3 17.4c-.6 1.2-1.4 2.4-2.2 3.6-1.3 1.8-2.7 3.5-4.4 5.1-3 3-6.3 5.4-9.8 7.1z"/><path d="M114 116.4h15.8V57.6c.1-5.6 2.2-10.4 6.2-14.4 3.8-3.6 8-5.6 12.9-6.1 1.6-2.8 3.7-5.3 6.1-7.7a40.558 40.558 0 016.97-5.611c.373-.237.75-.466 1.13-.689a34.792 34.792 0 00-1.277-.398c-3.22-.936-6.605-1.414-10.223-1.502H89.9c-12.315-.095-19.253 5.46-20.814 16.579A32.988 32.988 0 0068.9 39.4a29.34 29.34 0 00-.854-1.389C66.673 35.91 64.987 33.888 63.1 32 56 24.8 47.2 21.1 36.9 21.1 26.7 21.1 18 24.8 10.8 32 3.6 39.2 0 47.9 0 58.2c0 10.2 3.6 18.9 10.8 26.2 7.2 7.2 15.9 10.8 26.1 10.8h13.6V79.3H36.9c-5.8 0-10.8-2.1-14.8-6.2-4.2-4.1-6.2-9.1-6.2-14.9 0-5.9 2.1-10.8 6.2-15C26.2 39 31.2 37 36.9 37c5.9 0 10.8 2 15 6.2 2.5 2.5 4.2 5.3 5.2 8.4.6 1.9.9 3.9.9 6v37.6h39.7c6.088 0 11.241-.936 15.3-2.887.341-.164.674-.335 1-.513v24.6zM59 94.2h38.7c6.503 0 11.818-1.086 15.82-3.277l1.48-.81V115.4h13.8V57.582c.105-5.868 2.316-10.913 6.493-15.09l.009-.009.01-.009c3.817-3.615 8.058-5.703 12.977-6.311 1.623-2.724 3.691-5.157 6.004-7.47a41.827 41.827 0 016.399-5.266c-2.868-.754-5.885-1.148-9.104-1.227H89.892c-6.3-.049-11.006 1.417-14.262 4.243-3.248 2.819-5.2 7.119-5.734 13.047l-.284 3.146-1.578-2.736c-1.448-2.51-3.39-4.942-5.641-7.193l-.005-.005C55.477 25.694 46.934 22.1 36.9 22.1c-9.928 0-18.376 3.59-25.393 10.607C4.496 39.718 1 48.163 1 58.2c0 9.933 3.494 18.38 10.51 25.495C18.52 90.705 26.965 94.2 36.9 94.2h12.6V80.3H36.9c-6.063 0-11.319-2.204-15.507-6.493C16.998 69.513 14.9 64.254 14.9 58.2c0-6.173 2.21-11.32 6.484-15.699C25.68 38.102 30.94 36 36.9 36c6.163 0 11.318 2.103 15.707 6.493 2.609 2.609 4.395 5.545 5.445 8.8l.002.006C58.686 53.3 59 55.403 59 57.6v36.6zm38.422-13.9H73V58.2c0-.539-.006-.902-.07-1.158l-.926-3.701 2.622 2.772c1.596 1.686 4.576 3.446 9.122 5.272 4.516 1.813 10.467 3.65 17.894 5.545 2.337.572 4.208 1.426 5.51 2.585 1.331 1.185 2.048 2.674 2.048 4.385v.045l-.004.046c-.189 2.072-1.441 3.612-3.474 4.628-1.985.993-4.775 1.528-8.279 1.68l-.021.001zm3.978-12.4c-13.54-3.453-22.29-6.741-26.401-10.089-.413-.336-.78-.673-1.099-1.011.1.4.1.9.1 1.4v21.1h23.4c6.9-.3 10.5-2.1 10.8-5.4 0-2.8-2.3-4.9-6.8-6zm13.733-12.446l-1.291-.665c-3.201-1.649-7.316-3.027-12.386-4.32-5.874-1.455-10.364-2.978-13.407-4.57-1.52-.796-2.732-1.636-3.574-2.536-.837-.893-1.36-1.904-1.375-3.018-.06-.763.132-1.477.602-2.086.46-.595 1.13-1.018 1.903-1.326 1.527-.608 3.755-.882 6.577-.933H122.521l-1.102 1.574c-3.401 4.858-5.443 10.298-6.125 16.436l-.161 1.444zM84.1 40.3c0 3.2 5.9 6.3 17.6 9.2 4.622 1.178 8.504 2.438 11.648 3.93.325.154.642.31.952.47.039-.354.083-.706.131-1.055.753-5.46 2.584-10.386 5.493-14.845.219-.336.445-.67.676-1H92.2c-5.6.1-8.3 1.1-8.1 3.3zM205.9 58.709v.009c-.105 5.868-2.316 10.912-6.493 15.09-3.624 3.623-7.961 5.815-12.811 6.34-1.613 2.626-3.67 5.14-5.989 7.46a41.786 41.786 0 01-6.43 5.286c3 .819 6.205 1.206 9.623 1.206 9.935 0 18.381-3.495 25.393-10.507C216.205 76.58 219.7 68.135 219.7 58.2V1h-13.8v57.709zM204.9 0h15.8v58.2c0 10.2-3.6 18.9-10.8 26.1-7.2 7.2-15.9 10.8-26.1 10.8-3.818 0-7.399-.473-10.744-1.489a31.114 31.114 0 01-1.256-.411c.375-.22.747-.447 1.116-.68a40.529 40.529 0 006.984-5.62c2.4-2.4 4.5-5 6.1-7.7 4.8-.4 9.1-2.5 12.7-6.1 4-4 6.1-8.8 6.2-14.4V0z"/><path d="M154.117 37.678l-.017.022c-.871 1.16-1.529 2.2-2.092 3.42l-.013.027-.015.027c-2.719 5.05-4.18 10.687-4.18 17.026 0 6.129 1.272 11.495 3.889 16.392 4.371-.123 7.937-1.633 11.104-4.8.432-.431.753-.83 1.109-1.269l.201-.248C162.53 65.193 161.7 61.83 161.7 58.2c0-3.967.942-7.532 2.723-10.78.61-1.118 1.352-2.297 2.331-3.288.428-.529.946-1.046 1.418-1.518l.021-.021c3.761-3.761 8.175-5.865 13.407-6.388l.05-.005h.05c.251 0 .529-.02.87-.046l.019-.001c.334-.025.719-.053 1.111-.053h13.6v-14h-13.6c-4.098 0-7.977.584-11.55 1.837-.188.074-.4.145-.573.203a17.11 17.11 0 00-.197.066c-.223.079-.4.152-.566.252l-.107.064-.12.036c-.635.19-1.19.455-1.805.748-.271.13-.554.264-.86.4-3.384 1.647-6.589 3.976-9.515 6.901l-.01.01-.01.01a28.643 28.643 0 00-4.255 5.028l-.015.023zM167.5 24.8c.259-.115.518-.238.779-.363.647-.308 1.309-.623 2.021-.837.333-.2.667-.311 1-.422.167-.056.333-.111.5-.178 3.7-1.3 7.7-1.9 11.9-1.9h14.6v16h-14.6c-.363 0-.727.027-1.076.053-.324.024-.636.047-.924.047-5 .5-9.2 2.5-12.8 6.1-.5.5-1 1-1.4 1.5-.9.9-1.6 2-2.2 3.1-1.7 3.1-2.6 6.5-2.6 10.3 0 3.7.9 7.1 2.6 10.2-.2.233-.389.467-.578.7-.378.467-.755.933-1.222 1.4-3.5 3.5-7.5 5.1-12.4 5.1-2.9-5.2-4.3-10.9-4.3-17.4 0-6.5 1.5-12.3 4.3-17.5.6-1.3 1.3-2.4 2.2-3.6 1.2-1.8 2.6-3.5 4.4-5.2 3-3 6.3-5.4 9.8-7.1z"/></g><defs><clipPath id="clip0"><path fill="#fff" d="M0 0h220.8v116.3H0z"/></clipPath></defs></svg>