<svg width="137" height="31" fill="none" xmlns="http://www.w3.org/2000/svg"><path fill-rule="evenodd" clip-rule="evenodd" d="M17.234 1.538l8.126 14.063 8.108 14.045h-3.303L28.57 26.9l-3.303-5.714H9.2L5.898 26.9l-1.596 2.746H1L9.126 15.6l8.108-14.063zm6.456 16.883l-.78-1.336-5.676-9.833-5.659 9.833-.78 1.336H23.69zM52.595 1.111c5.177 0 9.722 2.71 12.282 6.79l-2.449 1.54c-2.06-3.265-5.695-5.435-9.833-5.435C46.195 4.006 41 9.2 41 15.6c0 6.4 5.194 11.596 11.595 11.596 4.138 0 7.774-2.171 9.833-5.455l2.45 1.54c-2.561 4.082-7.106 6.809-12.283 6.809-7.996 0-14.49-6.494-14.49-14.49 0-8.015 6.494-14.49 14.49-14.49zM106.231 26.362h1.967L121.649 1l13.432 25.362h1.911V31h-2.709v-1.762H108.94V31h-2.709v-4.638zm5.214 0h20.389L121.649 6.714c-3.395 6.55-6.809 13.099-10.204 19.648zM74.71 1.538H98.7v28.108h-2.894V4.414h-18.2v25.232H74.71V1.538z" fill="#FEFEFE"/><path clip-rule="evenodd" d="M17.234 1.538L1 29.646h32.468L17.233 1.538z" stroke="#FEFEFE" stroke-width=".649"/><path d="M52.595 30.165c8.003 0 14.49-6.487 14.49-14.49 0-8.002-6.487-14.49-14.49-14.49-8.002 0-14.49 6.488-14.49 14.49 0 8.003 6.488 14.49 14.49 14.49z" stroke="#FEFEFE" stroke-width=".649"/><path fill-rule="evenodd" clip-rule="evenodd" d="M74.71 1.538H98.7v28.108H74.71V1.538zm23.34.65H75.36v26.808h22.69V2.187z" fill="#FEFEFE"/></svg>