<svg width="1043" height="183" fill="none" xmlns="http://www.w3.org/2000/svg"><path opacity=".3" d="M126.12 170.8l.507.862.004-.003-.511-.859zm28.44-30.12l-.885-.465.885.465zm9.96-48.6l1-.03-1 .03zm-.36-5.52l.988-.152-.13-.848h-.858v1zm-62.16 0v-1h-1v1h1zm0 25.2h-1v1h1v-1zm27.36 0l.982.189.229-1.189h-1.211v1zm-15.84 30l-.624-.782-.004.003.628.779zm-28.56 9.12l.021-1h-.006l-.015 1zM48 134.56l-.794.609.003.003.791-.612zm0-86.28l-.797-.604-.003.004.8.6zm36.96-15.96l-.015 1h.008l.007-1zm27.12 9.24l-.654.757.01.008.644-.765zm15.36 24.12l-.955.296.252.815.845-.121-.142-.99zm33.36-4.8l.142.99 1.075-.155-.242-1.058-.975.223zm-25.56-43.8l.63-.777-.63.777zm-93.6-4.92l-.494-.87-.002.002.496.868zM12.12 42.88l-.877-.48-.001.002.878.478zm-4.44 87.48l-.933.36.002.006.931-.366zm17.88 28.2l-.71.703.003.004.707-.707zm26.16 17.28l-.37.929.006.003.364-.932zm31.08 6.76c16.787 0 31.409-3.633 43.827-10.938l-1.014-1.724C113.551 177.033 99.293 180.6 82.8 180.6v2zm43.831-10.941c12.402-7.375 22.01-17.553 28.814-30.514l-1.77-.93c-6.636 12.639-15.987 22.541-28.066 29.726l1.022 1.718zm28.814-30.514c6.806-12.963 10.195-27.807 10.195-44.505h-2c0 16.422-3.331 30.938-9.965 43.575l1.77.93zM165.64 96.64c0-.42-.041-1.96-.12-4.59l-2 .06c.081 2.65.12 4.15.12 4.53h2zm-.12-4.59c-.08-2.638-.201-4.534-.372-5.642l-1.976.304c.149.972.268 2.756.348 5.398l2-.06zm-1.36-6.49H102v2h62.16v-2zm-63.16 1v25.2h2v-25.2h-2zm1 26.2h27.36v-2H102v2zm26.378-1.189c-2.612 13.533-7.807 23.283-15.482 29.407l1.248 1.564c8.165-6.516 13.53-16.766 16.198-30.593l-1.964-.378zm-15.486 29.41c-7.635 6.156-16.918 9.135-27.91 8.899l-.043 2c11.407.244 21.164-2.857 29.209-9.341l-1.256-1.558zm-27.917 8.899c-16.17-.237-28.171-5.586-36.184-15.932l-1.582 1.224c8.467 10.934 21.106 16.465 37.736 16.708l.03-2zm-36.181-15.929C40.806 123.537 36.76 109.455 36.76 91.6h-2c0 18.145 4.113 32.703 12.447 43.569l1.587-1.218zM36.76 91.6c0-17.853 4.046-32.062 12.04-42.72l-1.6-1.2C38.874 58.782 34.76 73.453 34.76 91.6h2zm12.037-42.716c8.008-10.574 19.994-15.8 36.148-15.564l.03-2c-16.646-.244-29.3 5.17-37.772 16.356l1.594 1.208zM84.953 33.32c10.849.079 19.645 3.1 26.473 8.997l1.308-1.514c-7.252-6.263-16.536-9.402-27.767-9.483l-.014 2zm26.483 9.005c6.954 5.86 11.978 13.728 15.049 23.65l1.91-.59c-3.169-10.239-8.385-18.45-15.671-24.59l-1.288 1.53zm16.146 24.345l33.36-4.8-.284-1.98-33.36 4.8.284 1.98zm34.193-6.013c-4.361-19.057-12.981-33.868-25.905-44.354l-1.26 1.554c12.516 10.154 20.936 24.543 25.215 43.246l1.95-.446zM135.87 16.303C122.917 5.795 105.188.6 82.8.6v2c22.092 0 39.323 5.125 51.81 15.257l1.26-1.554zM82.8.6C67.597.6 53.705 4.16 41.146 11.29l.988 1.74C54.374 6.08 67.924 2.6 82.8 2.6v-2zM41.144 11.292C28.65 18.43 18.684 28.812 11.243 42.4l1.754.96c7.279-13.291 16.992-23.39 29.14-30.332l-.993-1.736zm-29.902 31.11C3.864 55.941.2 72.355.2 91.6h2c0-18.995 3.616-35.061 10.798-48.241l-1.756-.958zM.2 91.6c0 14.737 2.174 27.783 6.547 39.12l1.866-.72C4.346 118.937 2.2 106.143 2.2 91.6h-2zm6.55 39.126c4.443 11.31 10.472 20.829 18.1 28.537l1.42-1.406c-7.412-7.492-13.303-16.773-17.66-27.863l-1.86.732zm18.103 28.541c7.694 7.695 16.529 13.531 26.497 17.502l.74-1.858c-9.712-3.869-18.318-9.553-25.823-17.058l-1.414 1.414zm26.503 17.505c9.96 3.886 20.443 5.828 31.444 5.828v-2c-10.76 0-20.996-1.898-30.716-5.692l-.728 1.864zM172.004 178l-.956-.292-.395 1.292h1.351v-1zm33.6 0v1h.742l.215-.71-.957-.29zm10.92-36v-1h-.742l-.215.71.957.29zm65.04 0l.955-.296-.218-.704h-.737v1zm11.16 36l-.955.296.218.704h.737v-1zm33.6 0v1h1.351l-.395-1.292-.956.292zm-52.8-172.8l.956-.292-.216-.708h-.74v1zm-48.72 0v-1h-.74l-.216.708.956.292zm.96 106.32l-.957-.291-.392 1.291h1.349v-1zm23.04-75.72l.956-.295-.963-3.116-.95 3.12.957.291zm23.4 75.72v1h1.356l-.4-1.295-.956.295zM172.003 179h33.6v-2h-33.6v2zm34.557-.71l10.92-36-1.914-.58-10.92 36 1.914.58zm9.963-35.29h65.04v-2h-65.04v2zm64.085-.704l11.16 36 1.91-.592-11.16-36-1.91.592zM292.723 179h33.6v-2h-33.6v2zm34.556-1.292l-52.8-172.8-1.912.584 52.8 172.8 1.912-.584zM273.523 4.2h-48.72v2h48.72v-2zm-49.676.708l-52.8 172.8 1.912.584 52.8-172.8-1.912-.584zm2.873 106.903l23.04-75.72-1.914-.582-23.04 75.72 1.914.582zm21.128-75.716l23.4 75.72 1.911-.59-23.4-75.72-1.911.59zm24.355 74.425h-46.44v2h46.44v-2zM350.231 178h-1v1h1v-1zm107.04 0v1h1v-1h-1zm0-30.48h1v-1h-1v1zm-74.4 0h-1v1h1v-1zm0-142.32h1v-1h-1v1zm-32.64 0v-1h-1v1h1zm0 173.8h107.04v-2h-107.04v2zm108.04-1v-30.48h-2V178h2zm-1-31.48h-74.4v2h74.4v-2zm-73.4 1V5.2h-2v142.32h2zm-1-143.32h-32.64v2h32.64v-2zm-33.64 1V178h2V5.2h-2zM480.075 178h-1v1h1v-1zm107.04 0v1h1v-1h-1zm0-30.48h1v-1h-1v1zm-74.4 0h-1v1h1v-1zm0-142.32h1v-1h-1v1zm-32.64 0v-1h-1v1h1zm0 173.8h107.04v-2h-107.04v2zm108.04-1v-30.48h-2V178h2zm-1-31.48h-74.4v2h74.4v-2zm-73.4 1V5.2h-2v142.32h2zm-1-143.32h-32.64v2h32.64v-2zm-33.64 1V178h2V5.2h-2zM607.519 178h-1v1h1v-1zm112.8 0v1h1v-1h-1zm0-30.48h1v-1h-1v1zm-80.16 0h-1v1h1v-1zm0-44.4v-1h-1v1h1zm65.76 0v1h1v-1h-1zm0-30.48h1v-1h-1v1zm-65.76 0h-1v1h1v-1zm0-36.96v-1h-1v1h1zm80.16 0v1h1v-1h-1zm0-30.48h1v-1h-1v1zm-112.8 0v-1h-1v1h1zm0 173.8h112.8v-2h-112.8v2zm113.8-1v-30.48h-2V178h2zm-1-31.48h-80.16v2h80.16v-2zm-79.16 1v-44.4h-2v44.4h2zm-1-43.4h65.76v-2h-65.76v2zm66.76-1V72.64h-2v30.48h2zm-1-31.48h-65.76v2h65.76v-2zm-64.76 1V35.68h-2v36.96h2zm-1-35.96h80.16v-2h-80.16v2zm81.16-1V5.2h-2v30.48h2zm-1-31.48h-112.8v2h112.8v-2zm-113.8 1V178h2V5.2h-2zM749.081 178h-1v1h1v-1zm32.64 0v1h1v-1h-1zm0-58.56v-1h-1v1h1zm36.36 0l.9-.437-.274-.563h-.626v1zm28.44 58.56l-.899.437.273.563h.626v-1zm36.96 0v1h1.599l-.7-1.438-.899.438zm-31.2-64.08l-.414-.91-.934.425.449.923.899-.438zm21.72-20.28l-.888-.46-.001.003.889.457zm-37.56-87.48l-.176.984.012.002.011.002.153-.988zm-7.68-.72l-.057.998.015.001h.014l.028-.999zm-79.68-.24v-1h-1v1h1zm32.64 83.76h-1v1h1v-1zm0-53.28v-1h-1v1h1zm44.4.24l-.079.997.079-.997zm5.52.96l-.274.962.011.003.263-.965zm10.2 6.12l-.768.64.009.01.759-.65zm4.92 9.48l-.97.242.003.014.004.013.963-.269zm0 19.8l-.964-.263-.003.008-.002.007.969.248zm-4.92 9.48l.76.65.008-.01-.768-.64zm-10.2 6l-.263-.965-.011.004.274.961zm-5.52.96l.08.997-.08-.997zM749.081 179h32.64v-2h-32.64v2zm33.64-1v-58.56h-2V178h2zm-1-57.56h36.36v-2h-36.36v2zm35.461-.563l28.44 58.56 1.799-.874-28.44-58.56-1.799.874zM846.521 179h36.96v-2h-36.96v2zm37.859-1.438l-31.2-64.08-1.798.876 31.2 64.08 1.798-.876zm-31.684-62.732c10.031-4.567 17.445-11.48 22.195-20.733l-1.779-.914c-4.531 8.827-11.596 15.434-21.245 19.827l.829 1.82zm22.193-20.73c4.804-9.282 7.192-19.883 7.192-31.78h-2c0 11.623-2.331 21.902-6.968 30.86l1.776.92zm7.192-31.78c0-14.729-3.604-27.337-10.859-37.77l-1.642 1.14c6.985 10.047 10.501 22.239 10.501 36.63h2zm-10.859-37.77c-7.314-10.52-18.912-16.948-34.628-19.378l-.306 1.976c15.324 2.37 26.367 8.583 33.292 18.543l1.642-1.142zM836.617 5.175c-2.3-.411-4.911-.655-7.828-.736l-.056 2c2.843.079 5.352.315 7.532.704l.352-1.968zm-7.799-.734c-2.808-.16-5.069-.242-6.777-.242v2c1.653 0 3.871.079 6.663.238l.114-1.996zm-6.777-.242h-72.96v2h72.96v-2zm-73.96 1V178h2V5.2h-2zm34.64 83.76V35.68h-2v53.28h2zm-1-52.28h38.88v-2h-38.88v2zm38.88 0c1.649 0 3.462.078 5.441.237l.159-1.994a70.59 70.59 0 00-5.6-.243v2zm5.441.237c1.943.155 3.717.465 5.325.925l.549-1.923c-1.752-.501-3.658-.831-5.715-.996l-.159 1.994zm5.336.928c4.246 1.158 7.452 3.104 9.695 5.795l1.536-1.28c-2.557-3.069-6.15-5.203-10.705-6.445l-.526 1.93zm9.704 5.806c2.301 2.684 3.867 5.705 4.709 9.071l1.94-.485c-.918-3.673-2.631-6.972-5.13-9.888l-1.519 1.302zm4.716 9.098c.939 3.365 1.403 6.554 1.403 9.571h2c0-3.223-.496-6.594-1.477-10.109l-1.926.538zm1.403 9.571c0 3.018-.464 6.248-1.404 9.697l1.929.526c.98-3.592 1.475-7 1.475-10.223h-2zm-1.409 9.712c-.841 3.288-2.409 6.316-4.719 9.088l1.536 1.28c2.49-2.988 4.202-6.28 5.121-9.872l-1.938-.496zm-4.71 9.077c-2.242 2.616-5.451 4.526-9.704 5.686l.526 1.93c4.547-1.24 8.138-3.33 10.697-6.314l-1.519-1.302zm-9.715 5.69c-1.608.459-3.382.769-5.325.924l.159 1.994c2.057-.165 3.963-.495 5.715-.995l-.549-1.923zm-5.325.924a68.633 68.633 0 01-5.441.237v2c1.711 0 3.578-.081 5.6-.243l-.159-1.994zm-5.441.237h-38.88v2h38.88v-2zM948.587 178h-1v1h1v-1zm33.12 0v1h1v-1h-1zm0-70.32l-.867-.499-.133.232v.267h1zM1040.75 5.2l.86.5.87-1.5h-1.73v1zm-38.16 0v-1h-.58l-.29.501.87.499zm-37.443 65.04l-.867.499.867 1.505.867-1.505-.867-.499zM927.707 5.2l.867-.499-.289-.501h-.578v1zm-38.16 0v-1h-1.73l.863 1.5.867-.5zm59.04 102.48h1v-.267l-.134-.232-.866.499zm0 71.32h33.12v-2h-33.12v2zm34.12-1v-70.32h-2V178h2zm-.134-69.821l59.037-102.48-1.73-.998-59.04 102.48 1.733.998zM1040.75 4.2h-38.16v2h38.16v-2zm-39.03.501l-37.44 65.04 1.734.998 37.436-65.04-1.73-.998zm-35.706 65.04l-37.44-65.04-1.734.998 37.44 65.04 1.734-.998zM927.707 4.2h-38.16v2h38.16v-2zM888.68 5.7l59.04 102.479 1.733-.998-59.04-102.48-1.733.998zm58.907 101.98V178h2v-70.32h-2z" fill="#fff"/></svg>